<mxfile host="app.diagrams.net" modified="2020-10-30T01:30:51.448Z" agent="5.0 (Macintosh; Intel Mac OS X 10_15_3) AppleWebKit/537.36 (KHTML, like Gecko) Chrome/86.0.4240.111 Safari/537.36" etag="G6y6-d_VoGGsERvx2kPS" version="13.8.7" type="github">
  <diagram id="T5H_3VyD0Q95AF5PfXNq" name="Page-1">
    <mxGraphModel dx="807" dy="578" grid="1" gridSize="10" guides="1" tooltips="1" connect="1" arrows="1" fold="1" page="1" pageScale="1" pageWidth="1400" pageHeight="850" math="0" shadow="0">
      <root>
        <mxCell id="0" />
        <mxCell id="1" parent="0" />
        <mxCell id="V1wIChjYlS4gTkBvIGiZ-18" style="edgeStyle=orthogonalEdgeStyle;rounded=0;orthogonalLoop=1;jettySize=auto;html=1;exitX=1;exitY=0.5;exitDx=0;exitDy=0;endArrow=classic;endFill=1;" edge="1" parent="1" source="V1wIChjYlS4gTkBvIGiZ-1" target="V1wIChjYlS4gTkBvIGiZ-4">
          <mxGeometry relative="1" as="geometry" />
        </mxCell>
        <mxCell id="V1wIChjYlS4gTkBvIGiZ-1" value="PySyft node" style="ellipse;whiteSpace=wrap;html=1;aspect=fixed;" vertex="1" parent="1">
          <mxGeometry x="80" y="160" width="80" height="80" as="geometry" />
        </mxCell>
        <mxCell id="V1wIChjYlS4gTkBvIGiZ-19" style="edgeStyle=orthogonalEdgeStyle;rounded=0;orthogonalLoop=1;jettySize=auto;html=1;exitX=1;exitY=0.5;exitDx=0;exitDy=0;endArrow=classic;endFill=1;" edge="1" parent="1" source="V1wIChjYlS4gTkBvIGiZ-2" target="V1wIChjYlS4gTkBvIGiZ-6">
          <mxGeometry relative="1" as="geometry" />
        </mxCell>
        <mxCell id="V1wIChjYlS4gTkBvIGiZ-2" value="PySyft node" style="ellipse;whiteSpace=wrap;html=1;aspect=fixed;" vertex="1" parent="1">
          <mxGeometry x="80" y="280" width="80" height="80" as="geometry" />
        </mxCell>
        <mxCell id="V1wIChjYlS4gTkBvIGiZ-20" style="edgeStyle=orthogonalEdgeStyle;rounded=0;orthogonalLoop=1;jettySize=auto;html=1;exitX=1;exitY=0.5;exitDx=0;exitDy=0;endArrow=classic;endFill=1;" edge="1" parent="1" source="V1wIChjYlS4gTkBvIGiZ-3" target="V1wIChjYlS4gTkBvIGiZ-7">
          <mxGeometry relative="1" as="geometry" />
        </mxCell>
        <mxCell id="V1wIChjYlS4gTkBvIGiZ-3" value="PySyft node" style="ellipse;whiteSpace=wrap;html=1;aspect=fixed;" vertex="1" parent="1">
          <mxGeometry x="80" y="400" width="80" height="80" as="geometry" />
        </mxCell>
        <mxCell id="V1wIChjYlS4gTkBvIGiZ-14" style="edgeStyle=orthogonalEdgeStyle;rounded=0;orthogonalLoop=1;jettySize=auto;html=1;exitX=1;exitY=0.5;exitDx=0;exitDy=0;entryX=0.25;entryY=0.25;entryDx=0;entryDy=0;entryPerimeter=0;fillColor=#ffe6cc;strokeColor=#d79b00;" edge="1" parent="1" source="V1wIChjYlS4gTkBvIGiZ-4" target="V1wIChjYlS4gTkBvIGiZ-11">
          <mxGeometry relative="1" as="geometry" />
        </mxCell>
        <mxCell id="V1wIChjYlS4gTkBvIGiZ-21" value="plaintext" style="edgeLabel;html=1;align=center;verticalAlign=middle;resizable=0;points=[];" vertex="1" connectable="0" parent="V1wIChjYlS4gTkBvIGiZ-14">
          <mxGeometry x="-0.685" y="-2" relative="1" as="geometry">
            <mxPoint as="offset" />
          </mxGeometry>
        </mxCell>
        <mxCell id="V1wIChjYlS4gTkBvIGiZ-4" value="WebSocket&lt;br&gt;forward" style="shape=process;whiteSpace=wrap;html=1;backgroundOutline=1;" vertex="1" parent="1">
          <mxGeometry x="200" y="170" width="120" height="60" as="geometry" />
        </mxCell>
        <mxCell id="V1wIChjYlS4gTkBvIGiZ-16" style="edgeStyle=orthogonalEdgeStyle;rounded=0;orthogonalLoop=1;jettySize=auto;html=1;exitX=1;exitY=0.5;exitDx=0;exitDy=0;entryX=0.25;entryY=0.25;entryDx=0;entryDy=0;entryPerimeter=0;fillColor=#ffe6cc;strokeColor=#d79b00;" edge="1" parent="1" source="V1wIChjYlS4gTkBvIGiZ-6" target="V1wIChjYlS4gTkBvIGiZ-11">
          <mxGeometry relative="1" as="geometry" />
        </mxCell>
        <mxCell id="V1wIChjYlS4gTkBvIGiZ-22" value="plaintext" style="edgeLabel;html=1;align=center;verticalAlign=middle;resizable=0;points=[];" vertex="1" connectable="0" parent="V1wIChjYlS4gTkBvIGiZ-16">
          <mxGeometry x="-0.545" y="1" relative="1" as="geometry">
            <mxPoint as="offset" />
          </mxGeometry>
        </mxCell>
        <mxCell id="V1wIChjYlS4gTkBvIGiZ-6" value="WebSocket&lt;br&gt;forward" style="shape=process;whiteSpace=wrap;html=1;backgroundOutline=1;" vertex="1" parent="1">
          <mxGeometry x="200" y="290" width="120" height="60" as="geometry" />
        </mxCell>
        <mxCell id="V1wIChjYlS4gTkBvIGiZ-15" style="edgeStyle=orthogonalEdgeStyle;rounded=0;orthogonalLoop=1;jettySize=auto;html=1;exitX=1;exitY=0.5;exitDx=0;exitDy=0;entryX=0.25;entryY=0.25;entryDx=0;entryDy=0;entryPerimeter=0;endArrow=none;endFill=0;fillColor=#ffe6cc;strokeColor=#d79b00;" edge="1" parent="1" source="V1wIChjYlS4gTkBvIGiZ-7" target="V1wIChjYlS4gTkBvIGiZ-11">
          <mxGeometry relative="1" as="geometry">
            <mxPoint x="470" y="410" as="targetPoint" />
          </mxGeometry>
        </mxCell>
        <mxCell id="V1wIChjYlS4gTkBvIGiZ-24" value="plaintext" style="edgeLabel;html=1;align=center;verticalAlign=middle;resizable=0;points=[];" vertex="1" connectable="0" parent="V1wIChjYlS4gTkBvIGiZ-15">
          <mxGeometry x="-0.2" relative="1" as="geometry">
            <mxPoint as="offset" />
          </mxGeometry>
        </mxCell>
        <mxCell id="V1wIChjYlS4gTkBvIGiZ-7" value="WebSocket&lt;br&gt;forward" style="shape=process;whiteSpace=wrap;html=1;backgroundOutline=1;" vertex="1" parent="1">
          <mxGeometry x="200" y="410" width="120" height="60" as="geometry" />
        </mxCell>
        <mxCell id="V1wIChjYlS4gTkBvIGiZ-27" style="edgeStyle=orthogonalEdgeStyle;rounded=0;orthogonalLoop=1;jettySize=auto;html=1;exitX=0;exitY=0.5;exitDx=0;exitDy=0;endArrow=classic;endFill=1;fillColor=#fff2cc;strokeColor=#d6b656;" edge="1" parent="1" source="V1wIChjYlS4gTkBvIGiZ-8" target="V1wIChjYlS4gTkBvIGiZ-9">
          <mxGeometry relative="1" as="geometry" />
        </mxCell>
        <mxCell id="V1wIChjYlS4gTkBvIGiZ-8" value="PySyft&amp;nbsp;&lt;br&gt;network" style="shape=hexagon;perimeter=hexagonPerimeter2;whiteSpace=wrap;html=1;fixedSize=1;" vertex="1" parent="1">
          <mxGeometry x="920" y="280" width="120" height="80" as="geometry" />
        </mxCell>
        <mxCell id="V1wIChjYlS4gTkBvIGiZ-26" style="edgeStyle=orthogonalEdgeStyle;rounded=0;orthogonalLoop=1;jettySize=auto;html=1;exitX=0.5;exitY=1;exitDx=0;exitDy=0;entryX=0.4;entryY=0.1;entryDx=0;entryDy=0;entryPerimeter=0;endArrow=classic;endFill=1;fillColor=#fff2cc;strokeColor=#d6b656;" edge="1" parent="1" source="V1wIChjYlS4gTkBvIGiZ-9" target="V1wIChjYlS4gTkBvIGiZ-25">
          <mxGeometry relative="1" as="geometry" />
        </mxCell>
        <mxCell id="V1wIChjYlS4gTkBvIGiZ-33" value="plaintext" style="edgeLabel;html=1;align=center;verticalAlign=middle;resizable=0;points=[];" vertex="1" connectable="0" parent="V1wIChjYlS4gTkBvIGiZ-26">
          <mxGeometry x="-0.2305" y="-1" relative="1" as="geometry">
            <mxPoint as="offset" />
          </mxGeometry>
        </mxCell>
        <mxCell id="V1wIChjYlS4gTkBvIGiZ-9" value="WebSocket&lt;br&gt;forward" style="shape=process;whiteSpace=wrap;html=1;backgroundOutline=1;" vertex="1" parent="1">
          <mxGeometry x="698" y="290" width="120" height="60" as="geometry" />
        </mxCell>
        <mxCell id="V1wIChjYlS4gTkBvIGiZ-11" value="Main&lt;br&gt;WebSocket" style="ellipse;shape=cloud;whiteSpace=wrap;html=1;" vertex="1" parent="1">
          <mxGeometry x="440" y="420" width="120" height="80" as="geometry" />
        </mxCell>
        <mxCell id="V1wIChjYlS4gTkBvIGiZ-17" style="edgeStyle=orthogonalEdgeStyle;rounded=0;orthogonalLoop=1;jettySize=auto;html=1;exitX=1;exitY=0.5;exitDx=0;exitDy=0;entryX=0.31;entryY=0.8;entryDx=0;entryDy=0;entryPerimeter=0;fillColor=#f8cecc;strokeColor=#b85450;" edge="1" parent="1" source="V1wIChjYlS4gTkBvIGiZ-13" target="V1wIChjYlS4gTkBvIGiZ-11">
          <mxGeometry relative="1" as="geometry" />
        </mxCell>
        <mxCell id="V1wIChjYlS4gTkBvIGiZ-34" value="plaintext" style="edgeLabel;html=1;align=center;verticalAlign=middle;resizable=0;points=[];" vertex="1" connectable="0" parent="V1wIChjYlS4gTkBvIGiZ-17">
          <mxGeometry x="-0.5758" relative="1" as="geometry">
            <mxPoint as="offset" />
          </mxGeometry>
        </mxCell>
        <mxCell id="V1wIChjYlS4gTkBvIGiZ-13" value="Statistics&lt;br&gt;module" style="shape=hexagon;perimeter=hexagonPerimeter2;whiteSpace=wrap;html=1;fixedSize=1;" vertex="1" parent="1">
          <mxGeometry x="200" y="520" width="120" height="80" as="geometry" />
        </mxCell>
        <mxCell id="V1wIChjYlS4gTkBvIGiZ-29" style="edgeStyle=orthogonalEdgeStyle;rounded=0;orthogonalLoop=1;jettySize=auto;html=1;exitX=0.16;exitY=0.55;exitDx=0;exitDy=0;exitPerimeter=0;entryX=0.875;entryY=0.5;entryDx=0;entryDy=0;entryPerimeter=0;endArrow=classic;endFill=1;startArrow=classic;startFill=1;strokeWidth=4;" edge="1" parent="1" source="V1wIChjYlS4gTkBvIGiZ-25" target="V1wIChjYlS4gTkBvIGiZ-11">
          <mxGeometry relative="1" as="geometry" />
        </mxCell>
        <mxCell id="V1wIChjYlS4gTkBvIGiZ-25" value="Main&lt;br&gt;WebSocket" style="ellipse;shape=cloud;whiteSpace=wrap;html=1;" vertex="1" parent="1">
          <mxGeometry x="710" y="416" width="120" height="80" as="geometry" />
        </mxCell>
        <mxCell id="V1wIChjYlS4gTkBvIGiZ-30" value="SSL encrypted" style="text;html=1;strokeColor=none;fillColor=none;align=center;verticalAlign=middle;whiteSpace=wrap;rounded=0;" vertex="1" parent="1">
          <mxGeometry x="610" y="420" width="40" height="20" as="geometry" />
        </mxCell>
        <mxCell id="V1wIChjYlS4gTkBvIGiZ-32" style="edgeStyle=orthogonalEdgeStyle;rounded=0;orthogonalLoop=1;jettySize=auto;html=1;exitX=0;exitY=0.5;exitDx=0;exitDy=0;startArrow=none;startFill=0;endArrow=classic;endFill=1;strokeWidth=1;fillColor=#f8cecc;strokeColor=#b85450;" edge="1" parent="1" source="V1wIChjYlS4gTkBvIGiZ-31" target="V1wIChjYlS4gTkBvIGiZ-25">
          <mxGeometry relative="1" as="geometry" />
        </mxCell>
        <mxCell id="V1wIChjYlS4gTkBvIGiZ-35" value="plaintext" style="edgeLabel;html=1;align=center;verticalAlign=middle;resizable=0;points=[];" vertex="1" connectable="0" parent="V1wIChjYlS4gTkBvIGiZ-32">
          <mxGeometry x="-0.3256" y="3" relative="1" as="geometry">
            <mxPoint x="-1" as="offset" />
          </mxGeometry>
        </mxCell>
        <mxCell id="V1wIChjYlS4gTkBvIGiZ-31" value="Dashboard&lt;br&gt;backend" style="shape=hexagon;perimeter=hexagonPerimeter2;whiteSpace=wrap;html=1;fixedSize=1;" vertex="1" parent="1">
          <mxGeometry x="910" y="520" width="120" height="80" as="geometry" />
        </mxCell>
      </root>
    </mxGraphModel>
  </diagram>
</mxfile>
